<svg width="25" height="25" viewBox="0 0 25 25" fill="none" xmlns="http://www.w3.org/2000/svg">
<path d="M11.6233 15.3756C11.4233 15.3756 11.2333 15.2956 11.0933 15.1556L8.67331 12.7356C8.38331 12.4456 8.38331 11.9656 8.67331 11.6756C8.96331 11.3856 9.44331 11.3856 9.73331 11.6756L11.6233 13.5656L15.9233 9.2656C16.2133 8.9756 16.6933 8.9756 16.9833 9.2656C17.2733 9.5556 17.2733 10.0356 16.9833 10.3256L12.1533 15.1556C12.0133 15.2956 11.8233 15.3756 11.6233 15.3756Z" fill="#797979"/>
<path d="M12.8333 22.9556C12.2033 22.9556 11.5733 22.7456 11.0833 22.3256L9.50332 20.9656C9.34332 20.8256 8.94332 20.6856 8.73332 20.6856H7.01332C5.53332 20.6856 4.33332 19.4856 4.33332 18.0056V16.2956C4.33332 16.0856 4.19332 15.6956 4.05332 15.5356L2.70332 13.9456C1.88332 12.9756 1.88332 11.4456 2.70332 10.4756L4.05332 8.88557C4.19332 8.72557 4.33332 8.33557 4.33332 8.12557V6.40557C4.33332 4.92557 5.53332 3.72557 7.01332 3.72557H8.74332C8.95332 3.72557 9.35332 3.57557 9.51332 3.44557L11.0933 2.08557C12.0733 1.24557 13.6033 1.24557 14.5833 2.08557L16.1633 3.44557C16.3233 3.58557 16.7233 3.72557 16.9333 3.72557H18.6333C20.1133 3.72557 21.3133 4.92557 21.3133 6.40557V8.10557C21.3133 8.31557 21.4633 8.71557 21.6033 8.87557L22.9633 10.4556C23.8033 11.4356 23.8033 12.9656 22.9633 13.9456L21.6033 15.5256C21.4633 15.6856 21.3133 16.0856 21.3133 16.2956V17.9956C21.3133 19.4756 20.1133 20.6756 18.6333 20.6756H16.9333C16.7233 20.6756 16.3233 20.8256 16.1633 20.9556L14.5833 22.3156C14.0933 22.7456 13.4633 22.9556 12.8333 22.9556ZM7.01332 5.22557C6.36332 5.22557 5.83332 5.75557 5.83332 6.40557V8.11557C5.83332 8.68557 5.56332 9.41557 5.19332 9.84557L3.84332 11.4356C3.49332 11.8456 3.49332 12.5556 3.84332 12.9656L5.19332 14.5556C5.56332 14.9956 5.83332 15.7156 5.83332 16.2856V17.9956C5.83332 18.6456 6.36332 19.1756 7.01332 19.1756H8.74332C9.32332 19.1756 10.0533 19.4456 10.4933 19.8256L12.0733 21.1856C12.4833 21.5356 13.2033 21.5356 13.6133 21.1856L15.1933 19.8256C15.6333 19.4556 16.3633 19.1756 16.9433 19.1756H18.6433C19.2933 19.1756 19.8233 18.6456 19.8233 17.9956V16.2956C19.8233 15.7156 20.0933 14.9856 20.4733 14.5456L21.8333 12.9656C22.1833 12.5556 22.1833 11.8356 21.8333 11.4256L20.4733 9.84557C20.0933 9.40557 19.8233 8.67557 19.8233 8.09557V6.40557C19.8233 5.75557 19.2933 5.22557 18.6433 5.22557H16.9433C16.3633 5.22557 15.6333 4.95557 15.1933 4.57557L13.6133 3.21557C13.2033 2.86557 12.4833 2.86557 12.0733 3.21557L10.4933 4.58557C10.0533 4.95557 9.31332 5.22557 8.74332 5.22557H7.01332Z" fill="#797979"/>
</svg>
