<svg width="25" height="25" viewBox="0 0 25 25" fill="none" xmlns="http://www.w3.org/2000/svg">
<path fill-rule="evenodd" clip-rule="evenodd" d="M7.93526 1.45557H17.0647C17.6346 1.45555 18.1186 1.45554 18.5185 1.49689C18.9443 1.54091 19.3378 1.63651 19.7096 1.86628C20.0814 2.09605 20.3429 2.40528 20.5727 2.76645C20.7885 3.10567 21.0049 3.53854 21.2598 4.04837L21.2763 4.08131C21.286 4.10075 21.2949 4.12061 21.3029 4.14083L22.7065 7.68897C22.8735 8.11116 23.0586 8.63787 23.1127 9.17685C23.1681 9.72815 23.0921 10.3597 22.6601 10.9075C22.3068 11.3556 21.8155 11.6919 21.25 11.8519V21.4556H22.5C22.9142 21.4556 23.25 21.7914 23.25 22.2056C23.25 22.6198 22.9142 22.9556 22.5 22.9556H2.5C2.08579 22.9556 1.75 22.6198 1.75 22.2056C1.75 21.7914 2.08579 21.4556 2.5 21.4556H3.75V11.852C3.18446 11.6919 2.69312 11.3556 2.33975 10.9075C1.90779 10.3597 1.83182 9.72814 1.88718 9.17684C1.9413 8.63786 2.12639 8.11116 2.2934 7.68897L3.69701 4.14083C3.70501 4.12061 3.71388 4.10075 3.72361 4.08131L3.7401 4.04832C3.99498 3.53852 4.21139 3.10566 4.42723 2.76645C4.65704 2.40528 4.91853 2.09605 5.29031 1.86628C5.66208 1.63651 6.05561 1.54091 6.48142 1.49689C6.88134 1.45554 7.36529 1.45555 7.93526 1.45557ZM18.4999 11.0931C18.8359 11.4489 19.2658 11.7152 19.75 11.8521V21.4556H15.75V18.6734C15.75 18.2336 15.75 17.8542 15.7218 17.543C15.692 17.2138 15.6259 16.8878 15.4486 16.5806C15.2511 16.2386 14.967 15.9545 14.625 15.757C14.3178 15.5797 13.9918 15.5136 13.6627 15.4838C13.3514 15.4556 12.972 15.4556 12.5322 15.4556H12.4678C12.028 15.4556 11.6486 15.4556 11.3373 15.4838C11.0082 15.5136 10.6822 15.5797 10.375 15.757C10.033 15.9545 9.74892 16.2386 9.55144 16.5806C9.37407 16.8878 9.30802 17.2138 9.27818 17.543C9.24997 17.8542 9.24998 18.2336 9.25 18.6733V21.4556H5.25V11.8521C5.73413 11.7151 6.16398 11.4489 6.49992 11.0931C7.0013 11.6242 7.7119 11.9556 8.49991 11.9556C9.28793 11.9556 9.99853 11.6242 10.4999 11.0931C11.0013 11.6242 11.7119 11.9556 12.4999 11.9556C13.2879 11.9556 13.9985 11.6242 14.4999 11.0931C15.0013 11.6242 15.7119 11.9556 16.4999 11.9556C17.2879 11.9556 17.9985 11.6242 18.4999 11.0931ZM10.75 21.4556H14.25V18.7056C14.25 18.2245 14.2493 17.9138 14.2279 17.6783C14.2075 17.4532 14.1731 17.3715 14.1495 17.3306C14.0837 17.2166 13.989 17.1219 13.875 17.0561C13.8341 17.0325 13.7524 16.9981 13.5273 16.9777C13.2918 16.9563 12.9811 16.9556 12.5 16.9556C12.0189 16.9556 11.7082 16.9563 11.4727 16.9777C11.2476 16.9981 11.1659 17.0325 11.125 17.0561C11.011 17.1219 10.9163 17.2166 10.8505 17.3306C10.8269 17.3715 10.7925 17.4532 10.7721 17.6783C10.7507 17.9138 10.75 18.2245 10.75 18.7056V21.4556ZM7.24991 9.20557C7.24991 9.89593 7.80956 10.4556 8.49991 10.4556C9.19027 10.4556 9.74991 9.89593 9.74991 9.20557C9.74991 8.79136 10.0857 8.45557 10.4999 8.45557C10.9141 8.45557 11.2499 8.79136 11.2499 9.20557C11.2499 9.89593 11.8096 10.4556 12.4999 10.4556C13.1903 10.4556 13.7499 9.89593 13.7499 9.20557C13.7499 8.79136 14.0857 8.45557 14.4999 8.45557C14.9141 8.45557 15.2499 8.79136 15.2499 9.20557C15.2499 9.89593 15.8096 10.4556 16.4999 10.4556C17.1903 10.4556 17.7499 9.89593 17.7499 9.20557C17.7499 8.79136 18.0857 8.45557 18.4999 8.45557C18.9141 8.45557 19.2499 8.79136 19.2499 9.20557C19.2499 9.89593 19.8096 10.4556 20.4999 10.4556C20.8979 10.4556 21.2522 10.2705 21.4823 9.97862C21.5962 9.83416 21.6513 9.63651 21.6202 9.32671C21.5879 9.0046 21.469 8.63832 21.3117 8.24075L19.9201 4.72296C19.6524 4.18761 19.4735 3.83306 19.3071 3.57169C19.1472 3.32027 19.0325 3.21119 18.921 3.14226C18.8095 3.07333 18.6606 3.01958 18.3642 2.98893C18.0505 2.9565 17.6446 2.95557 17.0278 2.95557H7.97214C7.35533 2.95557 6.9494 2.9565 6.63569 2.98893C6.33927 3.01958 6.19044 3.07333 6.0789 3.14226C5.96737 3.21119 5.85274 3.32027 5.69276 3.57169C5.52646 3.83306 5.34755 4.18761 5.07983 4.72296L3.68823 8.24075C3.53095 8.63832 3.41202 9.0046 3.37967 9.32672C3.34856 9.63652 3.40366 9.83418 3.51759 9.97864C3.7477 10.2705 4.10196 10.4556 4.49991 10.4556C5.19027 10.4556 5.74991 9.89593 5.74991 9.20557C5.74991 8.79136 6.0857 8.45557 6.49991 8.45557C6.91413 8.45557 7.24991 8.79136 7.24991 9.20557Z" fill="#797979"/>
</svg>
