<svg width="25" height="25" viewBox="0 0 25 25" fill="none" xmlns="http://www.w3.org/2000/svg">
<path d="M21.6367 11.3905L20.6067 9.96051C20.3761 9.63672 20.0717 9.37256 19.7187 9.18995C19.3656 9.00735 18.9741 8.91155 18.5767 8.91051H14.1967V6.77051C14.1967 6.10747 13.9333 5.47158 13.4644 5.00274C12.9956 4.5339 12.3597 4.27051 11.6967 4.27051H4.72665C4.06418 4.27235 3.42937 4.53634 2.96093 5.00478C2.49249 5.47322 2.2285 6.10803 2.22665 6.77051V16.7105C2.22665 17.1083 2.38469 17.4899 2.66599 17.7712C2.9473 18.0525 3.32883 18.2105 3.72665 18.2105H4.94665C5.02216 18.7455 5.28836 19.2353 5.69626 19.5897C6.10416 19.9441 6.62632 20.1392 7.16665 20.1392C7.70699 20.1392 8.22915 19.9441 8.63705 19.5897C9.04495 19.2353 9.31114 18.7455 9.38665 18.2105H14.9467C15.0222 18.7455 15.2884 19.2353 15.6963 19.5897C16.1042 19.9441 16.6263 20.1392 17.1667 20.1392C17.707 20.1392 18.2291 19.9441 18.637 19.5897C19.0449 19.2353 19.3111 18.7455 19.3867 18.2105H20.6067C21.0045 18.2105 21.386 18.0525 21.6673 17.7712C21.9486 17.4899 22.1067 17.1083 22.1067 16.7105V12.8405C22.1042 12.3201 21.94 11.8134 21.6367 11.3905ZM7.16665 19.1405C6.91943 19.1405 6.67775 19.0672 6.47219 18.9298C6.26663 18.7925 6.10641 18.5973 6.0118 18.3689C5.9172 18.1405 5.89244 17.8891 5.94067 17.6466C5.9889 17.4042 6.10795 17.1814 6.28277 17.0066C6.45759 16.8318 6.68031 16.7128 6.92279 16.6645C7.16527 16.6163 7.4166 16.641 7.64501 16.7357C7.87342 16.8303 8.06864 16.9905 8.20599 17.196C8.34334 17.4016 8.41665 17.6433 8.41665 17.8905C8.41665 18.222 8.28496 18.54 8.05054 18.7744C7.81612 19.0088 7.49817 19.1405 7.16665 19.1405ZM13.1967 17.2105H9.31665C9.17105 16.7546 8.88431 16.3568 8.49785 16.0746C8.11139 15.7923 7.64522 15.6402 7.16665 15.6402C6.68809 15.6402 6.22192 15.7923 5.83546 16.0746C5.449 16.3568 5.16226 16.7546 5.01665 17.2105H3.72665C3.59405 17.2105 3.46687 17.1578 3.3731 17.0641C3.27933 16.9703 3.22665 16.8431 3.22665 16.7105V6.77051C3.22665 6.37268 3.38469 5.99115 3.66599 5.70985C3.9473 5.42854 4.32883 5.27051 4.72665 5.27051H11.6967C12.0945 5.27051 12.476 5.42854 12.7573 5.70985C13.0386 5.99115 13.1967 6.37268 13.1967 6.77051V17.2105ZM17.1667 19.1405C16.9194 19.1405 16.6778 19.0672 16.4722 18.9298C16.2666 18.7925 16.1064 18.5973 16.0118 18.3689C15.9172 18.1405 15.8924 17.8891 15.9407 17.6466C15.9889 17.4042 16.108 17.1814 16.2828 17.0066C16.4576 16.8318 16.6803 16.7128 16.9228 16.6645C17.1653 16.6163 17.4166 16.641 17.645 16.7357C17.8734 16.8303 18.0686 16.9905 18.206 17.196C18.3433 17.4016 18.4167 17.6433 18.4167 17.8905C18.4167 18.222 18.285 18.54 18.0505 18.7744C17.8161 19.0088 17.4982 19.1405 17.1667 19.1405ZM21.1067 16.7105C21.1067 16.8431 21.054 16.9703 20.9602 17.0641C20.8664 17.1578 20.7393 17.2105 20.6067 17.2105H19.3167C19.1711 16.7546 18.8843 16.3568 18.4979 16.0746C18.1114 15.7923 17.6452 15.6402 17.1667 15.6402C16.6881 15.6402 16.2219 15.7923 15.8355 16.0746C15.449 16.3568 15.1623 16.7546 15.0167 17.2105H14.1967V9.91051H18.5767C18.8152 9.91211 19.0501 9.97 19.2621 10.0795C19.4741 10.1889 19.6572 10.3469 19.7967 10.5405L20.8267 11.9705C21.0066 12.2251 21.1043 12.5287 21.1067 12.8405V16.7105Z" fill="#797979"/>
<path d="M18.1956 12.4104H16.1956C16.063 12.4104 15.9359 12.3577 15.8421 12.264C15.7483 12.1702 15.6956 12.043 15.6956 11.9104C15.6956 11.7778 15.7483 11.6506 15.8421 11.5568C15.9359 11.4631 16.063 11.4104 16.1956 11.4104H18.1956C18.3283 11.4104 18.4554 11.4631 18.5492 11.5568C18.643 11.6506 18.6956 11.7778 18.6956 11.9104C18.6956 12.043 18.643 12.1702 18.5492 12.264C18.4554 12.3577 18.3283 12.4104 18.1956 12.4104Z" fill="#797979"/>
</svg>
